<?xml version="1.0" encoding="UTF-8"?>
<svg id="Ebene_1" data-name="Ebene 1" xmlns="http://www.w3.org/2000/svg" viewBox="0 0 222.09 84.86">
  <defs>
    <style>
      .cls-1 {
        fill: #0056a4;
      }
    </style>
  </defs>
  <path class="cls-1" d="M51.82,57.56c0,5.48,4.15,9.63,9.59,9.63h10.18v-19.22h-10.18c-5.44,0-9.59,4.15-9.59,9.59ZM67.26,54.97v5.22c-.92,1.89-2.81,3.15-5.15,3.15-3.26,0-5.74-2.48-5.74-5.78s2.48-5.74,5.74-5.74c2.33,0,4.22,1.26,5.15,3.15Z"/>
  <polygon class="cls-1" points="76.22 67.19 80.78 67.19 80.78 52.34 89.28 52.34 89.28 67.19 93.83 67.19 93.83 47.97 76.22 47.97 76.22 67.19"/>
  <polygon class="cls-1" points="98.46 67.19 103.02 67.19 103.02 52.34 111.52 52.34 111.52 67.19 116.07 67.19 116.07 47.97 98.46 47.97 98.46 67.19"/>
  <polygon class="cls-1" points="125.26 39.41 120.7 39.41 120.7 67.19 125.26 67.19 125.26 52.34 134.13 52.34 134.13 67.19 138.68 67.19 138.68 47.97 125.26 47.97 125.26 39.41"/>
  <path class="cls-1" d="M151.98,47.52c-5.44,0-9.59,4.15-9.59,10.04,0,5.48,4.15,9.63,9.59,9.63h8.22v-3.89h-8.22c-2.41,0-4.26-1.63-4.85-4.04h14.44v-1.7c0-5.89-4.15-10.04-9.59-10.04ZM147.2,55.37c.67-2.48,2.48-3.96,4.78-3.96s4.11,1.48,4.78,3.96h-9.55Z"/>
  <path class="cls-1" d="M167.65,38.01c-1.93,0-3.59,1.52-3.59,3.52,0,1.11.48,2.22,1.44,2.85h4.33c.85-.63,1.33-1.74,1.33-2.85,0-2-1.48-3.52-3.52-3.52Z"/>
  <rect class="cls-1" x="165.39" y="47.97" width="4.55" height="19.22"/>
  <polygon class="cls-1" points="30.57 47.97 17.52 47.97 17.52 67.19 22.07 67.19 22.07 52.34 30.57 52.34 30.57 67.19 30.57 67.19 35.13 67.19 35.13 67.19 35.13 52.34 43.63 52.34 43.63 67.19 48.18 67.19 48.18 47.97 35.13 47.97 30.57 47.97"/>
  <polygon class="cls-1" points="187.63 47.97 174.57 47.97 174.57 67.19 179.13 67.19 179.13 52.34 187.63 52.34 187.63 67.19 187.63 67.19 192.18 67.19 192.18 67.19 192.18 52.34 199.96 52.34 199.96 67.19 204.51 67.19 204.51 47.97 192.18 47.97 187.63 47.97"/>
  <path class="cls-1" d="M36.29,29.34c.7.4,1.48.6,2.36.6.66,0,1.27-.11,1.82-.34.55-.23,1.03-.55,1.42-.95.39-.41.67-.86.83-1.38l-2.08-.91c-.15.44-.4.78-.75,1.04-.35.26-.77.38-1.25.38-.42,0-.79-.1-1.11-.3-.33-.2-.58-.48-.77-.85-.19-.36-.28-.78-.28-1.25s.09-.89.28-1.25c.19-.36.44-.65.77-.85.33-.2.7-.3,1.11-.3.47,0,.88.13,1.24.38.36.26.61.6.76,1.04l2.08-.9c-.17-.54-.45-1.02-.85-1.42-.4-.4-.87-.71-1.42-.94-.55-.22-1.16-.34-1.81-.34-.88,0-1.66.2-2.37.59-.7.4-1.26.94-1.66,1.62-.41.69-.61,1.46-.61,2.33s.21,1.64.62,2.34c.41.69.96,1.24,1.66,1.64Z"/>
  <path class="cls-1" d="M56.45,24.65c0-.34.07-.63.2-.88.13-.25.32-.44.57-.58.24-.14.52-.21.83-.21s.6.07.84.21c.24.14.43.33.56.58.13.24.2.54.2.88v5.1h2.4v-5.62c0-.66-.14-1.24-.42-1.74-.28-.5-.66-.88-1.16-1.16-.5-.28-1.07-.42-1.74-.42-.61,0-1.14.12-1.59.38-.38.21-.65.54-.86.94v-1.12h-2.24v8.74h2.4v-5.1Z"/>
  <path class="cls-1" d="M147.97,24.65c0-.34.07-.63.2-.88.13-.25.32-.44.57-.58.24-.14.52-.21.83-.21s.6.07.84.21c.24.14.43.33.56.58.13.24.2.54.2.88v5.1h2.4v-5.62c0-.66-.14-1.24-.42-1.74-.28-.5-.66-.88-1.16-1.16-.5-.28-1.08-.42-1.74-.42-.61,0-1.14.12-1.59.38-.29.16-.51.4-.7.67v-4.23h-2.4v12.11h2.4v-5.1Z"/>
  <rect class="cls-1" x="63.79" y="21.01" width="2.4" height="8.74"/>
  <path class="cls-1" d="M184.73,29.49c.5.3,1.1.46,1.8.46.61,0,1.14-.13,1.59-.38.38-.21.65-.54.86-.94v1.12h2.24v-8.74h-2.4v5.1c0,.33-.07.62-.2.87-.13.25-.32.45-.56.58-.24.14-.52.21-.84.21s-.59-.07-.83-.21c-.24-.14-.43-.33-.57-.58-.13-.25-.2-.54-.2-.87v-5.1h-2.4v5.3c0,.73.13,1.36.38,1.9s.63.97,1.13,1.27Z"/>
  <rect class="cls-1" x="193.14" y="17.64" width="2.4" height="12.11"/>
  <path class="cls-1" d="M24.64,27.67c.37.69.9,1.24,1.58,1.66.68.41,1.49.62,2.42.62.6,0,1.15-.09,1.65-.26.5-.18.94-.42,1.3-.74.37-.32.64-.69.81-1.12l-1.92-.91c-.17.3-.41.53-.71.7-.3.17-.67.26-1.1.26-.47,0-.87-.1-1.2-.31-.33-.21-.58-.5-.74-.87-.08-.19-.14-.4-.16-.62h6.12c.04-.12.07-.26.09-.42.02-.16.02-.33.02-.5,0-.61-.1-1.17-.29-1.69-.19-.52-.47-.97-.84-1.37-.37-.39-.82-.7-1.35-.92-.53-.22-1.15-.33-1.84-.33-.83,0-1.58.2-2.24.59-.66.4-1.19.93-1.58,1.62-.39.68-.58,1.46-.58,2.34s.19,1.61.56,2.3ZM27.41,23.05c.3-.2.66-.3,1.07-.3s.79.1,1.08.31c.29.21.5.49.62.85.04.12.05.26.06.39h-3.59c.03-.12.04-.25.08-.35.15-.39.37-.69.67-.9Z"/>
  <path class="cls-1" d="M127.04,29.35c.71.4,1.5.59,2.36.59s1.65-.2,2.35-.59c.7-.4,1.27-.94,1.69-1.62.42-.69.63-1.47.63-2.34s-.21-1.67-.63-2.35c-.42-.68-.98-1.22-1.69-1.62-.7-.39-1.49-.59-2.35-.59s-1.65.2-2.36.59c-.71.4-1.27.93-1.7,1.62-.42.68-.63,1.47-.63,2.35s.21,1.66.63,2.34c.42.69.99,1.23,1.7,1.62ZM127.47,24.14c.19-.36.45-.64.78-.85.33-.21.71-.31,1.15-.31s.82.1,1.14.31c.33.21.58.49.77.85.19.36.28.77.28,1.24s-.09.89-.28,1.25c-.19.36-.44.65-.77.85-.33.2-.71.3-1.14.3s-.82-.1-1.15-.3c-.33-.2-.59-.48-.78-.85-.19-.36-.28-.78-.28-1.25s.09-.88.28-1.24Z"/>
  <rect class="cls-1" x="63.79" y="17.83" width="2.4" height="2.4"/>
  <path class="cls-1" d="M176.05,24.65c0-.34.07-.63.2-.88.13-.25.32-.44.57-.58.25-.14.52-.21.83-.21s.6.07.84.21c.24.14.43.33.56.58.13.24.2.54.2.88v5.1h2.4v-5.62c0-.66-.14-1.24-.42-1.74-.28-.5-.66-.88-1.16-1.16-.5-.28-1.07-.42-1.74-.42-.61,0-1.14.12-1.59.38-.29.16-.51.4-.7.67v-4.23h-2.4v12.11h2.4v-5.1Z"/>
  <polygon class="cls-1" points="122.96 29.75 122.96 17.83 120.48 17.83 120.48 22.98 115.84 22.98 115.84 17.83 113.36 17.83 113.36 29.75 115.84 29.75 115.84 25.14 120.48 25.14 120.48 29.75 122.96 29.75"/>
  <path class="cls-1" d="M158.53,22.74c.43,0,.81.11,1.14.33.34.22.57.51.7.87l1.78-.83c-.27-.73-.72-1.29-1.37-1.69-.65-.4-1.4-.6-2.25-.6-.65,0-1.23.11-1.73.34-.5.23-.89.55-1.17.95-.28.4-.42.88-.42,1.42,0,.62.19,1.15.58,1.61.38.45.93.78,1.65.98l1.49.42c.19.05.35.12.48.19.13.08.22.16.29.25.06.09.1.2.1.33,0,.24-.09.44-.27.58-.18.14-.44.21-.78.21-.47,0-.9-.13-1.28-.4-.38-.27-.69-.64-.91-1.1l-1.76.83c.26.77.74,1.38,1.45,1.83.71.45,1.54.68,2.5.68.68,0,1.27-.11,1.78-.34.5-.23.89-.55,1.18-.95.28-.41.42-.88.42-1.42,0-.63-.19-1.16-.58-1.59-.38-.43-.94-.75-1.66-.97l-1.39-.42c-.21-.06-.39-.13-.54-.21-.14-.07-.25-.16-.31-.26-.06-.1-.1-.2-.1-.32,0-.22.09-.4.26-.53.18-.13.42-.19.73-.19Z"/>
  <path class="cls-1" d="M144,27.27l-2.08-.91c-.15.44-.4.78-.75,1.04-.35.26-.77.38-1.25.38-.42,0-.79-.1-1.11-.3-.33-.2-.58-.48-.77-.85-.19-.36-.28-.78-.28-1.25s.09-.89.28-1.25c.19-.36.44-.65.77-.85.33-.2.7-.3,1.11-.3.47,0,.88.13,1.24.38.36.26.61.6.76,1.04l2.08-.9c-.17-.54-.45-1.02-.85-1.42-.39-.4-.87-.71-1.42-.94-.56-.22-1.16-.34-1.81-.34-.88,0-1.66.2-2.37.59-.7.4-1.26.94-1.66,1.62-.41.69-.61,1.46-.61,2.33s.2,1.64.62,2.34c.41.69.97,1.24,1.66,1.64.7.4,1.48.6,2.36.6.66,0,1.27-.11,1.82-.34.55-.23,1.03-.55,1.42-.95.39-.41.67-.86.83-1.38Z"/>
  <path class="cls-1" d="M205.54,23.44c-.19-.52-.47-.97-.84-1.37-.37-.39-.82-.7-1.35-.92-.53-.22-1.15-.33-1.84-.33-.83,0-1.58.2-2.24.59-.66.4-1.19.93-1.58,1.62-.39.68-.58,1.46-.58,2.34s.19,1.61.56,2.3c.37.69.9,1.24,1.58,1.66.68.41,1.49.62,2.42.62.6,0,1.15-.09,1.65-.26.5-.18.94-.42,1.3-.74.37-.32.64-.69.81-1.12l-1.92-.91c-.17.3-.41.53-.71.7-.3.17-.67.26-1.1.26-.47,0-.87-.1-1.2-.31-.33-.21-.58-.5-.74-.87-.08-.19-.14-.4-.16-.62h6.12c.04-.12.07-.26.09-.42.02-.16.02-.33.02-.5,0-.61-.1-1.17-.29-1.69ZM200.43,23.05c.3-.2.66-.3,1.07-.3s.79.1,1.08.31c.29.21.5.49.62.85.04.12.05.26.06.39h-3.59c.03-.12.04-.25.08-.35.15-.39.37-.69.67-.9Z"/>
  <path class="cls-1" d="M166.89,23.29c.33-.2.7-.3,1.11-.3.47,0,.88.13,1.24.38.36.26.61.6.76,1.04l2.08-.9c-.17-.54-.45-1.02-.85-1.42-.4-.4-.87-.71-1.42-.94-.55-.22-1.16-.34-1.81-.34-.88,0-1.66.2-2.37.59-.7.4-1.26.94-1.66,1.62-.41.69-.61,1.46-.61,2.33s.21,1.64.62,2.34c.41.69.96,1.24,1.66,1.64.7.4,1.48.6,2.36.6.66,0,1.27-.11,1.82-.34.55-.23,1.03-.55,1.42-.95.39-.41.67-.86.83-1.38l-2.08-.91c-.15.44-.4.78-.75,1.04-.35.26-.77.38-1.25.38-.42,0-.79-.1-1.11-.3-.33-.2-.58-.48-.77-.85-.19-.36-.28-.78-.28-1.25s.09-.89.28-1.25c.19-.36.44-.65.77-.85Z"/>
  <path class="cls-1" d="M78.44,29.34c.7.4,1.48.6,2.36.6.66,0,1.27-.11,1.82-.34.55-.23,1.03-.55,1.42-.95.39-.41.67-.86.83-1.38l-2.08-.91c-.15.44-.4.78-.75,1.04-.35.26-.77.38-1.25.38-.42,0-.79-.1-1.11-.3-.33-.2-.58-.48-.77-.85-.19-.36-.28-.78-.28-1.25s.09-.89.28-1.25c.19-.36.44-.65.77-.85.33-.2.7-.3,1.11-.3.47,0,.88.13,1.24.38.36.26.61.6.76,1.04l2.08-.9c-.17-.54-.45-1.02-.85-1.42-.39-.4-.87-.71-1.42-.94-.56-.22-1.16-.34-1.81-.34-.88,0-1.66.2-2.37.59-.7.4-1.26.94-1.66,1.62-.41.69-.61,1.46-.61,2.33s.2,1.64.62,2.34c.41.69.97,1.24,1.66,1.64Z"/>
  <path class="cls-1" d="M71.33,22.74c.43,0,.81.11,1.14.33.34.22.57.51.7.87l1.78-.83c-.27-.73-.72-1.29-1.37-1.69-.65-.4-1.39-.6-2.25-.6-.65,0-1.23.11-1.73.34-.5.23-.89.55-1.17.95-.28.4-.42.88-.42,1.42,0,.62.19,1.15.58,1.61.38.45.93.78,1.65.98l1.49.42c.19.05.35.12.48.19.13.08.22.16.29.25.06.09.1.2.1.33,0,.24-.09.44-.27.58-.18.14-.44.21-.78.21-.47,0-.9-.13-1.28-.4-.38-.27-.69-.64-.91-1.1l-1.76.83c.26.77.74,1.38,1.45,1.83.71.45,1.54.68,2.5.68.68,0,1.27-.11,1.78-.34.5-.23.89-.55,1.18-.95.28-.41.42-.88.42-1.42,0-.63-.19-1.16-.58-1.59-.38-.43-.94-.75-1.66-.97l-1.39-.42c-.21-.06-.39-.13-.54-.21-.14-.07-.25-.16-.31-.26s-.1-.2-.1-.32c0-.22.09-.4.26-.53.18-.13.42-.19.73-.19Z"/>
  <path class="cls-1" d="M52.3,29.75v-5.62c0-.66-.14-1.24-.42-1.74-.28-.5-.66-.88-1.16-1.16-.5-.28-1.08-.42-1.74-.42-.61,0-1.14.12-1.59.38-.29.16-.51.4-.7.67v-4.23h-2.4v12.11h2.4v-5.1c0-.34.07-.63.2-.88.13-.25.32-.44.57-.58.24-.14.52-.21.83-.21s.6.07.84.21c.24.14.43.33.56.58.13.24.2.54.2.88v5.1h2.4Z"/>
  <polygon class="cls-1" points="18.88 29.75 21.36 29.75 21.36 19.99 24.33 19.99 24.33 17.83 15.85 17.83 15.85 19.99 18.88 19.99 18.88 29.75"/>
  <path class="cls-1" d="M92.87,21.24c-.5-.28-1.07-.42-1.74-.42-.61,0-1.14.12-1.59.38-.29.16-.51.4-.7.67v-4.23h-2.4v12.11h2.4v-5.1c0-.34.07-.63.2-.88.13-.25.32-.44.57-.58.25-.14.52-.21.83-.21s.6.07.84.21c.24.14.43.33.56.58.13.24.2.54.2.88v5.1h2.4v-5.62c0-.66-.14-1.24-.42-1.74-.28-.5-.66-.88-1.16-1.16Z"/>
  <path class="cls-1" d="M102.05,29.68c.5-.18.94-.42,1.3-.74s.64-.69.81-1.12l-1.92-.91c-.17.3-.41.53-.71.7-.3.17-.67.26-1.1.26-.47,0-.87-.1-1.2-.31-.33-.21-.58-.5-.74-.87-.08-.19-.14-.4-.16-.62h6.12c.04-.12.07-.26.09-.42.02-.16.02-.33.02-.5,0-.61-.1-1.17-.29-1.69-.19-.52-.47-.97-.84-1.37-.37-.39-.82-.7-1.35-.92-.53-.22-1.15-.33-1.84-.33-.83,0-1.58.2-2.24.59-.66.4-1.19.93-1.58,1.62-.39.68-.58,1.46-.58,2.34s.19,1.61.56,2.3c.37.69.9,1.24,1.58,1.66.68.41,1.49.62,2.42.62.6,0,1.15-.09,1.65-.26ZM99.17,23.05c.3-.2.66-.3,1.07-.3s.79.1,1.08.31c.29.21.5.49.62.85.04.12.05.26.06.39h-3.59c.03-.12.04-.25.08-.35.15-.39.37-.69.67-.9Z"/>
</svg>